<svg width="540" height="364" viewBox="0 0 540 364" fill="none" xmlns="http://www.w3.org/2000/svg">
<g clip-path="url(#clip0)">
<path opacity="0.1" d="M293.887 81.538C261.46 80.4106 230.575 69.9438 201.084 58.4899C171.593 47.0361 142.377 34.3446 110.726 28.277C90.3683 24.3739 67.0898 23.8227 50.6856 34.7355C34.9028 45.2574 29.8021 63.3701 27.0614 80.1952C24.9971 92.8515 23.7846 106.169 29.4364 118.019C33.3595 126.246 40.3291 133.16 45.1491 141.042C61.919 168.459 50.0643 202.269 31.8915 229.04C23.3737 241.601 13.4831 253.591 6.90443 266.949C0.325726 280.307 -2.71561 295.634 3.04138 309.272C8.74326 322.801 22.3366 332.942 37.0623 340.082C66.9696 354.587 102.198 358.735 136.575 361.085C212.643 366.291 289.122 364.036 365.396 361.782C393.62 360.945 421.974 360.098 449.742 355.734C465.159 353.309 481.082 349.466 492.276 340.177C506.49 328.377 509.997 308.421 500.478 293.64C484.504 268.843 440.352 262.685 429.174 236.07C423.026 221.424 429.339 205.11 438.273 191.522C457.428 162.381 489.545 136.813 491.233 103.504C492.396 80.621 476.959 57.7133 453.089 46.8858C428.067 35.5421 393.375 36.9651 374.926 55.7492C355.921 75.0895 322.517 82.53 293.887 81.538Z" fill="#F9A826"/>
<path opacity="0.1" d="M179.309 22.5601C185.294 22.5601 190.146 17.7079 190.146 11.7225C190.146 5.73708 185.294 0.884933 179.309 0.884933C173.323 0.884933 168.471 5.73708 168.471 11.7225C168.471 17.7079 173.323 22.5601 179.309 22.5601Z" fill="#F9A826"/>
<path opacity="0.1" d="M344.202 37.5213C350.187 37.5213 355.04 32.6691 355.04 26.6837C355.04 20.6982 350.187 15.8461 344.202 15.8461C338.217 15.8461 333.365 20.6982 333.365 26.6837C333.365 32.6691 338.217 37.5213 344.202 37.5213Z" fill="#F9A826"/>
<path opacity="0.1" d="M483.066 202.084C489.052 202.084 493.904 197.232 493.904 191.246C493.904 185.261 489.052 180.409 483.066 180.409C477.081 180.409 472.229 185.261 472.229 191.246C472.229 197.232 477.081 202.084 483.066 202.084Z" fill="#F9A826"/>
<path opacity="0.1" d="M521.832 161.094C531.863 161.094 539.995 152.962 539.995 142.931C539.995 132.9 531.863 124.768 521.832 124.768C511.801 124.768 503.669 132.9 503.669 142.931C503.669 152.962 511.801 161.094 521.832 161.094Z" fill="#F9A826"/>
<path opacity="0.1" d="M497.787 249.237C507.818 249.237 515.95 241.106 515.95 231.075C515.95 221.043 507.818 212.912 497.787 212.912C487.756 212.912 479.624 221.043 479.624 231.075C479.624 241.106 487.756 249.237 497.787 249.237Z" fill="#F9A826"/>
<path opacity="0.1" d="M24.4459 194.949C34.477 194.949 42.6088 186.817 42.6088 176.786C42.6088 166.755 34.477 158.624 24.4459 158.624C14.4149 158.624 6.28308 166.755 6.28308 176.786C6.28308 186.817 14.4149 194.949 24.4459 194.949Z" fill="#F9A826"/>
<path d="M365.146 351.024C364.748 350.206 364.413 349.358 364.144 348.489C363.643 346.485 364.269 344.355 364.304 342.271C364.277 340.829 364.109 339.392 363.803 337.982C362.821 332.578 361.842 327.168 360.867 321.753C360.416 319.248 359.96 316.743 359.744 314.238C359.529 311.733 359.554 309.062 359.514 306.472C359.384 298.069 357.911 289.712 357.58 281.319C357.4 276.95 357.079 272.591 356.708 268.232C356.102 260.751 355.44 253.256 354.133 245.865C353.091 239.993 350.124 234.522 350.089 228.564C350.059 225.474 350.029 222.383 349.999 219.29C349.974 216.644 349.929 213.894 348.767 211.509C347.765 209.404 345.951 207.796 344.177 206.273C338.916 201.73 333.471 197.411 327.843 193.316C329.562 193.496 331.38 193.657 332.954 192.94C334.527 192.224 335.679 190.269 334.913 188.716C334.412 187.739 333.354 187.213 332.312 186.852C330.291 186.245 328.199 185.908 326.089 185.85C326.287 185.048 326.441 184.235 326.55 183.415C327.648 174.792 323.329 166.335 323.339 157.641C323.339 148.698 327.878 140.476 330.504 131.928C334.631 118.347 333.987 103.762 328.68 90.5968C325.844 83.6373 321.715 77.1087 320.332 69.7283C319.25 63.9463 319.922 57.9588 318.949 52.1618C316.444 37.411 303.312 26.0674 288.887 22.1542C277.729 19.148 266.385 20.0849 255.167 22.1542C245.527 23.938 236.723 19.9997 227.108 21.2624C223.33 21.7634 219.402 22.991 216.972 25.9221C215.564 27.6156 214.777 29.73 213.59 31.5889C209.301 38.3079 200.768 40.5526 193.689 44.2202C182.926 49.7968 174.353 60.2185 172.75 72.2235C171.247 83.3467 175.636 94.3847 176.302 105.588C177.149 119.893 171.958 133.767 167.559 147.405C166.332 151.213 165.149 155.136 165.37 159.13C165.515 161.86 166.321 164.511 167.178 167.111C168.571 171.32 170.139 175.494 171.918 179.567C168.589 180.927 165.095 181.842 161.527 182.288C157.879 182.699 154.011 182.553 150.834 184.407C149.365 185.325 148.1 186.534 147.116 187.96C145.605 190.065 144.528 192.45 143.948 194.975C143.367 197.501 143.295 200.117 143.734 202.67C142.347 203.372 141.7 205.025 141.615 206.573C141.53 208.122 141.891 209.665 141.946 211.213C142.056 214.144 141.104 216.985 140.327 219.811C137.734 229.309 137.085 239.232 138.418 248.987C140.563 264.599 140.984 280.102 141.66 295.854C142.111 306.176 141.264 316.603 142.973 326.794C143.544 330.201 144.561 333.809 147.282 335.958C147.961 336.412 148.608 336.915 149.216 337.461C150.719 339.034 150.779 341.469 151.285 343.574C152.703 349.466 158.826 353.825 164.853 353.254L164.929 353.304C163.801 356.581 162.704 359.733 161.587 362.949H333.274C333.174 362.548 333.064 362.143 332.979 361.742C332.705 360.048 332.666 358.325 332.863 356.621C334.296 358.3 334.051 360.765 334.437 362.949H366.654C366.789 358.881 366.699 354.752 365.146 351.024Z" fill="url(#paint0_linear)"/>
<path d="M227.95 23.2415C224.202 23.7426 220.304 24.9601 217.884 27.8712C216.486 29.5547 215.709 31.654 214.532 33.4979C210.273 40.1768 201.8 42.4064 194.771 46.049C184.089 51.5906 175.581 61.9421 173.988 73.872C172.509 84.925 176.853 95.8878 177.495 107.021C178.337 121.236 173.181 135.019 168.812 148.573C167.594 152.35 166.422 156.249 166.637 160.217C166.788 162.933 167.584 165.563 168.436 168.148C172.444 180.294 177.886 192.133 185.972 202.044C194.059 211.955 205.012 219.871 217.438 222.802C223.11 224.14 228.962 224.431 234.789 224.646C243.708 224.98 252.628 225.147 261.55 225.147C266.45 225.147 271.38 225.092 276.19 224.145C286.397 222.171 295.4 216.389 304.119 210.727C314.165 204.214 325.162 196.197 326.696 184.332C327.788 175.764 323.499 167.362 323.504 158.724C323.504 149.84 328.013 141.688 330.624 133.171C334.721 119.669 334.081 105.173 328.81 92.0849C325.999 85.1755 321.896 78.687 320.523 71.3517C319.451 65.6098 320.117 59.6624 319.15 53.9004C316.69 39.2449 303.618 27.9764 289.288 24.0883C278.21 21.082 266.946 22.034 255.813 24.0883C246.258 25.897 237.52 21.9889 227.95 23.2415Z" fill="#3F3D56"/>
<path d="M230.986 146.067C232.99 155.292 231.663 165.383 226.477 173.269C223.906 177.187 220.464 180.469 216.802 183.38C211.113 187.985 204.656 191.547 197.727 193.902C202.047 197.309 207.051 199.744 212.397 201.042C216.486 202.044 220.705 202.33 224.924 202.545C246.05 203.671 267.235 202.907 288.225 200.26C295.24 199.373 302.555 198.151 308.232 193.922C308.737 193.613 309.129 193.149 309.349 192.599C309.755 191.211 308.102 190.159 306.734 189.693C299.965 187.378 292.675 186.046 286.822 181.937C277.854 175.649 274.116 164.1 273.319 153.177C272.523 142.254 274.086 131.241 273.019 120.344C258.549 120.123 244.085 120.543 229.628 121.601C228.02 121.722 220.73 121.321 219.868 122.714C218.896 124.292 222.939 128.12 223.941 129.638C227.291 134.629 229.68 140.201 230.986 146.067V146.067Z" fill="#FBBEBE"/>
<path opacity="0.1" d="M251.028 146.398C278.326 146.398 300.456 124.268 300.456 96.9701C300.456 69.6718 278.326 47.5421 251.028 47.5421C223.73 47.5421 201.6 69.6718 201.6 96.9701C201.6 124.268 223.73 146.398 251.028 146.398Z" fill="black"/>
<path d="M251.028 144.649C278.326 144.649 300.456 122.52 300.456 95.2215C300.456 67.9232 278.326 45.7935 251.028 45.7935C223.73 45.7935 201.6 67.9232 201.6 95.2215C201.6 122.52 223.73 144.649 251.028 144.649Z" fill="#FBBEBE"/>
<path d="M224.904 129.558H216.386V224.481H224.904V129.558Z" fill="#F9A826"/>
<path d="M320.413 277.166C316.369 293.725 313.834 310.851 315.542 327.811C316.675 339.039 320.618 351.265 320.823 362.704H198.278C198.248 356.526 198.223 350.128 198.193 343.734C198.193 342.562 198.193 341.389 198.193 340.227C198.193 338.724 198.193 337.186 198.193 335.667C198.168 331.038 198.148 326.458 198.128 322.014C198.093 313.997 198.053 305.981 197.281 297.964C195.913 283.764 192.271 269.865 187.486 256.412C187.14 255.41 186.784 254.448 186.423 253.466L186.303 253.145C185.942 252.143 185.567 251.141 185.191 250.139C179.228 234.296 172.414 217.847 175.671 201.373C176.885 195.46 179.353 189.877 182.909 185.001C186.465 180.124 191.026 176.067 196.284 173.104C199.531 171.3 203.108 169.922 206.806 169.862C213.184 169.762 218.906 173.505 224.217 177.042C226.722 178.725 229.303 180.404 231.903 182.007C238.116 185.85 244.575 189.272 251.544 191.392C261.425 194.398 272.588 194.518 281.647 189.523C283.417 188.529 285.094 187.377 286.657 186.081C289.711 183.485 292.482 180.575 294.924 177.398C297.319 182.067 302.54 184.037 306.864 187.008C312.942 191.191 317.196 197.635 319.891 204.514C322.587 211.394 323.79 218.739 324.817 226.059C325.819 233.284 326.676 240.589 326.26 247.859C325.679 257.83 322.777 267.48 320.413 277.166Z" fill="#3F3D56"/>
<path d="M228.912 240.444C230.72 242.498 232.349 244.702 233.782 247.033C234.453 248.14 235.005 249.738 234.023 250.585C233.491 250.947 232.855 251.123 232.214 251.086L220.429 251.587C218.651 251.662 216.812 251.733 215.143 251.086C212.818 250.214 211.18 248.15 209.672 246.181L204.446 239.372C203.068 237.573 201.655 235.699 201.179 233.485C200.703 231.27 201.475 228.619 203.519 227.637C205.293 226.786 207.397 227.407 209.261 228.038C212.803 229.236 217.017 230.042 220.154 232.092C223.426 234.241 226.377 237.518 228.912 240.444Z" fill="#F86D70"/>
<path opacity="0.1" d="M228.912 240.444C230.72 242.498 232.349 244.702 233.782 247.033C234.453 248.14 235.005 249.738 234.023 250.585C233.491 250.947 232.855 251.123 232.214 251.086L220.429 251.587C218.651 251.662 216.812 251.733 215.143 251.086C212.818 250.214 211.18 248.15 209.672 246.181L204.446 239.372C203.068 237.573 201.655 235.699 201.179 233.485C200.703 231.27 201.475 228.619 203.519 227.637C205.293 226.786 207.397 227.407 209.261 228.038C212.803 229.236 217.017 230.042 220.154 232.092C223.426 234.241 226.377 237.518 228.912 240.444Z" fill="black"/>
<path opacity="0.1" d="M222.223 241.226C223.66 233.552 225.631 225.988 228.12 218.589C229.338 214.981 230.681 211.373 231.081 207.566C231.392 204.614 231.116 201.623 231.382 198.667C231.613 196.112 232.244 193.611 232.615 191.076C233.369 185.924 233.059 180.672 231.703 175.644C230.625 171.636 231.658 166.791 229.092 163.544C228.05 162.226 226.662 161.224 225.585 159.936C224.508 158.649 223.731 156.895 224.262 155.302C227.909 156.136 231.683 156.256 235.375 155.657C236.474 155.538 237.532 155.17 238.467 154.58C238.93 154.279 239.299 153.854 239.532 153.354C239.765 152.853 239.852 152.297 239.785 151.749C239.569 150.662 238.597 149.905 237.66 149.319C234.386 147.298 230.703 146.029 226.879 145.602C223.055 145.176 219.183 145.604 215.544 146.854C215.434 146.569 215.43 146.254 215.531 145.966C215.632 145.678 215.832 145.435 216.095 145.281C216.631 144.989 217.218 144.8 217.824 144.725C219.68 144.308 221.403 143.438 222.84 142.192C224.276 140.946 225.382 139.363 226.056 137.585C226.287 137.094 226.343 136.539 226.216 136.011C225.795 134.784 224.052 134.854 222.789 135.165L215.985 136.838C214.664 137.104 213.383 137.539 212.172 138.131C210.669 138.953 209.441 140.25 208.264 141.523C204.696 145.386 201.049 149.364 199.085 154.239C198.198 156.449 197.677 158.789 196.75 160.978C195.823 163.168 194.4 165.272 192.276 166.335C190.041 167.447 188.994 170.022 189.359 172.487C189.725 174.953 191.088 177.147 192.466 179.226C195.001 183.179 197.866 186.91 201.029 190.38C203.158 192.634 205.538 194.769 206.891 197.555C207.858 199.524 208.269 201.718 209.121 203.738C209.601 204.667 209.966 205.651 210.208 206.669C210.297 207.405 210.284 208.15 210.168 208.883C208.74 219.991 200.503 229.045 197.421 239.818C197.244 240.322 197.17 240.857 197.206 241.391C197.341 242.393 198.208 243.165 199.01 243.781C204.997 248.29 212.312 250.64 219.472 252.895C220.79 249.257 221.511 245.044 222.223 241.226Z" fill="black"/>
<path d="M221.221 240.725C222.658 233.051 224.628 225.487 227.118 218.087C228.336 214.48 229.678 210.872 230.079 207.064C230.39 204.113 230.114 201.122 230.38 198.166C230.61 195.611 231.242 193.11 231.612 190.575C232.367 185.423 232.056 180.171 230.701 175.143C229.623 171.135 230.655 166.29 228.09 163.043C227.048 161.725 225.66 160.723 224.583 159.435C223.506 158.148 222.729 156.394 223.26 154.801C226.907 155.635 230.681 155.755 234.373 155.156C235.472 155.037 236.53 154.669 237.465 154.079C237.927 153.778 238.296 153.353 238.529 152.853C238.762 152.352 238.85 151.796 238.782 151.248C238.567 150.161 237.595 149.404 236.658 148.818C233.383 146.797 229.701 145.528 225.877 145.101C222.052 144.675 218.181 145.103 214.542 146.353C214.432 146.068 214.428 145.753 214.529 145.465C214.629 145.177 214.83 144.934 215.093 144.78C215.629 144.487 216.216 144.299 216.822 144.224C218.677 143.807 220.401 142.937 221.838 141.691C223.274 140.445 224.379 138.862 225.054 137.084C225.285 136.593 225.341 136.038 225.214 135.51C224.793 134.283 223.05 134.353 221.787 134.664L214.983 136.337C213.662 136.603 212.38 137.038 211.17 137.63C209.667 138.452 208.439 139.749 207.262 141.022C203.694 144.885 200.047 148.863 198.083 153.738C197.196 155.948 196.675 158.288 195.748 160.477C194.821 162.667 193.398 164.771 191.273 165.834C189.039 166.946 187.992 169.521 188.357 171.986C188.723 174.452 190.086 176.646 191.464 178.725C193.999 182.678 196.863 186.409 200.027 189.879C202.156 192.133 204.536 194.268 205.889 197.054C206.856 199.023 207.267 201.217 208.119 203.236C208.599 204.166 208.964 205.15 209.206 206.168C209.295 206.904 209.281 207.649 209.166 208.382C207.738 219.49 199.501 228.544 196.419 239.317C196.241 239.821 196.168 240.356 196.204 240.89C196.339 241.892 197.206 242.664 198.007 243.28C203.995 247.789 211.31 250.139 218.47 252.394C219.788 248.756 220.509 244.543 221.221 240.725Z" fill="#FBBEBE"/>
<path d="M225.75 237.924C225.888 237.969 226.013 238.046 226.117 238.148C226.221 238.249 226.3 238.373 226.348 238.51C226.396 238.647 226.413 238.793 226.396 238.937C226.379 239.081 226.33 239.22 226.251 239.342C224.61 244.291 222.445 249.051 219.793 253.541C214.492 250.615 209.304 247.487 204.23 244.157C203.023 243.365 201.77 242.503 201.109 241.216C193.714 226.796 220.795 235.043 225.75 237.924Z" fill="#3F3D56"/>
<path opacity="0.1" d="M195.923 244.913C194.184 247.253 192.155 249.368 190.412 251.717C187.305 255.931 185.241 260.801 182.801 265.436C179.606 271.534 175.746 277.259 171.292 282.507C166.782 287.793 161.416 293.194 160.915 300.123C160.845 301.125 160.86 302.163 160.299 302.974C159.798 303.706 158.911 304.082 158.25 304.688C157.588 305.294 157.207 306.431 157.864 307.033C155.293 307.308 154.226 310.41 153.73 312.945L152.593 318.797C152.24 320.322 152.055 321.882 152.042 323.447C152.107 325.571 152.803 327.621 153.545 329.61C156.268 336.788 159.812 343.628 164.107 349.992C166.161 353.039 168.541 356.1 171.913 357.558C175.005 358.891 178.512 358.705 181.874 358.49C186.634 358.189 192.17 357.428 194.535 353.289C196.038 350.659 195.808 347.277 197.446 344.721C198.293 343.414 199.561 342.441 200.588 341.274C202.482 339.12 203.509 336.359 204.456 333.653C208.803 321.232 212.285 308.526 214.878 295.624C215.744 291.295 216.526 286.906 218.305 282.867C219.948 279.125 222.393 275.808 224.653 272.396C228.887 265.997 229.518 260.451 232.444 253.356C225.996 251.853 223.015 247.579 217.518 243.946C212.332 240.524 204.671 233.234 199.2 230.609C197.376 235.103 198.894 240.92 195.923 244.913Z" fill="black"/>
<path opacity="0.1" d="M191.99 241.411C190.246 243.751 188.217 245.87 186.479 248.22C183.377 252.434 181.308 257.304 178.873 261.934C175.669 268.031 171.804 273.757 167.349 279.009C162.839 284.295 157.468 289.697 156.972 296.621C156.902 297.623 156.912 298.665 156.351 299.472C155.79 300.279 154.963 300.584 154.307 301.186C153.65 301.787 153.259 302.934 153.921 303.535C151.345 303.806 150.278 306.907 149.787 309.448L148.65 315.295C148.293 316.819 148.106 318.379 148.094 319.945C148.159 322.074 148.855 324.123 149.597 326.112C152.321 333.289 155.865 340.127 160.159 346.49C162.213 349.541 164.593 352.598 167.965 354.056C171.061 355.393 174.569 355.203 177.931 354.993C182.686 354.692 188.222 353.925 190.592 349.792C192.095 347.161 191.86 343.779 193.503 341.224C194.345 339.911 195.613 338.944 196.64 337.772C198.534 335.617 199.561 332.862 200.508 330.151C204.857 317.731 208.34 305.024 210.929 292.122C211.796 287.798 212.578 283.403 214.357 279.365C216 275.627 218.45 272.305 220.705 268.898C224.944 262.495 224.713 258.697 227.619 251.597C221.176 250.094 219.066 244.082 213.59 240.444C208.409 237.022 200.743 229.732 195.272 227.106C193.438 231.606 194.956 237.423 191.99 241.411Z" fill="black"/>
<path d="M194.175 243.16C192.436 245.505 190.407 247.619 188.663 249.969C185.562 254.183 183.497 259.053 181.057 263.682C177.852 269.788 173.982 275.521 169.518 280.778C165.009 286.064 159.643 291.465 159.142 298.395C159.071 299.397 159.086 300.434 158.525 301.241C157.964 302.047 157.137 302.353 156.476 302.959C155.815 303.566 155.434 304.703 156.09 305.304C153.52 305.58 152.453 308.676 151.957 311.216L150.819 317.069C150.466 318.594 150.281 320.153 150.268 321.718C150.328 323.843 151.03 325.892 151.771 327.881C154.496 335.059 158.04 341.898 162.333 348.264C164.392 351.31 166.772 354.366 170.144 355.824C173.236 357.162 176.743 356.972 180.105 356.761C184.865 356.461 190.402 355.699 192.767 351.56C194.27 348.93 194.039 345.548 195.678 342.993C196.519 341.685 197.792 340.713 198.819 339.54C200.713 337.391 201.74 334.63 202.687 331.925C207.035 319.504 210.515 306.797 213.104 293.895C213.976 289.566 214.757 285.177 216.536 281.134C218.18 277.396 220.625 274.074 222.879 270.667C227.122 264.26 230.731 257.455 233.657 250.35C227.213 248.847 221.246 245.84 215.749 242.213C210.564 238.791 202.903 231.5 197.431 228.875C195.628 233.354 197.146 239.191 194.175 243.16Z" fill="#F86D70"/>
<path d="M210.784 251.813C212.716 251.813 214.281 250.247 214.281 248.315C214.281 246.384 212.716 244.818 210.784 244.818C208.853 244.818 207.287 246.384 207.287 248.315C207.287 250.247 208.853 251.813 210.784 251.813Z" fill="#3F3D56"/>
<path d="M199.846 268.873C201.778 268.873 203.344 267.307 203.344 265.376C203.344 263.444 201.778 261.879 199.846 261.879C197.915 261.879 196.349 263.444 196.349 265.376C196.349 267.307 197.915 268.873 199.846 268.873Z" fill="#3F3D56"/>
<path d="M188.473 286.37C190.404 286.37 191.97 284.804 191.97 282.872C191.97 280.941 190.404 279.375 188.473 279.375C186.541 279.375 184.975 280.941 184.975 282.872C184.975 284.804 186.541 286.37 188.473 286.37Z" fill="#3F3D56"/>
<path d="M366.509 362.704H334.522C334.141 360.534 334.387 358.084 332.964 356.421C332.766 358.113 332.805 359.825 333.079 361.506C333.164 361.907 333.274 362.308 333.374 362.704H292.69C292.414 357.573 293.191 352.618 294.148 347.457C295.476 340.127 296.227 332.703 296.392 325.256C296.598 316.057 295.916 306.862 295.891 297.663C295.851 288.55 296.437 279.444 297.645 270.411C298.747 262.104 300.386 253.687 299.023 245.414C297.52 236.18 296.207 226.816 295.045 217.526C294.855 215.466 294.46 213.43 293.867 211.449C293.354 210.063 292.765 208.706 292.104 207.385C289.058 200.669 287.226 193.466 286.692 186.111C286.462 183.34 282.534 180.83 282.594 178.029C287.945 176.947 297.475 175.604 302.61 177.463C307.746 179.322 311.584 183.876 316.74 185.58C321.75 187.258 327.412 186.051 332.438 187.729C333.47 188.075 334.537 188.606 335.018 189.578C335.78 191.121 334.637 193.055 333.074 193.772C331.511 194.488 329.702 194.323 327.998 194.148C333.58 198.213 338.986 202.503 344.217 207.019C345.976 208.522 347.754 210.136 348.772 212.225C349.924 214.59 349.969 217.326 349.994 219.951L350.084 229.17C350.139 235.088 353.066 240.524 354.093 246.356C355.39 253.702 356.047 261.147 356.653 268.583C357.004 272.912 357.339 277.246 357.515 281.585C357.845 289.922 359.309 298.224 359.434 306.572C359.474 309.147 359.434 311.727 359.664 314.288C359.895 316.848 360.331 319.298 360.777 321.753L363.693 337.897C364.001 339.298 364.169 340.726 364.194 342.161C364.159 344.235 363.537 346.335 364.038 348.339C364.31 349.197 364.645 350.035 365.04 350.844C366.564 354.562 366.644 358.665 366.509 362.704Z" fill="#F86D70"/>
<path d="M252.992 74.8791C279.084 74.8791 300.235 66.6531 300.235 56.5058C300.235 46.3585 279.084 38.1325 252.992 38.1325C226.9 38.1325 205.749 46.3585 205.749 56.5058C205.749 66.6531 226.9 74.8791 252.992 74.8791Z" fill="#3F3D56"/>
<path d="M284.733 77.0536C271.561 71.8778 266.385 83.1664 266.385 83.1664C261.314 96.6945 270.814 104.621 276.566 108.018C278.749 109.305 281.237 109.983 283.771 109.982C285.606 109.982 287.422 109.621 289.117 108.92C302.32 103.484 303.567 91.168 303.567 91.168C305.902 72.8449 284.733 77.0536 284.733 77.0536ZM298.462 91.4436C297.947 94.7126 296.597 97.7934 294.542 100.387C292.487 102.981 289.797 105.001 286.732 106.249C285.357 106.827 283.88 107.124 282.388 107.121C280.325 107.12 278.301 106.553 276.536 105.483C271.861 102.652 264.14 96.0432 268.264 84.7847C268.264 84.7847 272.468 75.3801 283.17 79.6891C283.17 79.6891 300.376 76.1618 298.462 91.4436Z" fill="#F86D70"/>
<path d="M283.17 79.6891C283.17 79.6891 300.376 76.1818 298.462 91.4436C297.947 94.7126 296.597 97.7934 294.542 100.387C292.487 102.981 289.797 105.001 286.732 106.249C285.357 106.827 283.88 107.124 282.388 107.121V107.121C280.325 107.12 278.301 106.553 276.536 105.483C271.861 102.652 264.14 96.0432 268.264 84.7847C268.264 84.7847 272.468 75.3801 283.17 79.6891Z" fill="#3F3D56"/>
<path opacity="0.1" d="M283.17 79.6891C283.17 79.6891 300.376 76.1818 298.462 91.4436C297.947 94.7126 296.597 97.7934 294.542 100.387C292.487 102.981 289.797 105.001 286.732 106.249C285.357 106.827 283.88 107.124 282.388 107.121V107.121C280.325 107.12 278.301 106.553 276.536 105.483C271.861 102.652 264.14 96.0432 268.264 84.7847C268.264 84.7847 272.468 75.3801 283.17 79.6891Z" fill="url(#paint1_radial)"/>
<path opacity="0.1" d="M224.999 135.069C251.235 135.069 272.503 113.801 272.503 87.5655C272.503 61.3298 251.235 40.0615 224.999 40.0615C198.763 40.0615 177.495 61.3298 177.495 87.5655C177.495 113.801 198.763 135.069 224.999 135.069Z" fill="black"/>
<path d="M224.999 133.055C250.122 133.055 270.489 112.689 270.489 87.5655C270.489 62.4422 250.122 42.0757 224.999 42.0757C199.876 42.0757 179.509 62.4422 179.509 87.5655C179.509 112.689 199.876 133.055 224.999 133.055Z" fill="#F9A826"/>
<path d="M248.843 62.3881L200.242 88.6979C200.074 88.7858 199.935 88.9195 199.84 89.0835C199.745 89.2475 199.698 89.4351 199.706 89.6244C199.713 89.8138 199.774 89.9972 199.881 90.1533C199.989 90.3095 200.138 90.432 200.312 90.5066L208.61 93.6332C209.091 93.8108 209.484 94.1707 209.702 94.6352L216.13 107.918C216.251 108.504 217.333 108.659 217.348 108.063L216.346 97.0954C216.404 96.2829 216.714 95.5087 217.233 94.8808L242.44 70.1843C242.511 70.1151 242.598 70.0646 242.694 70.0375C242.789 70.0103 242.889 70.0074 242.986 70.029C243.082 70.0503 243.17 70.0957 243.243 70.1609C243.316 70.2261 243.371 70.309 243.402 70.4015C243.434 70.494 243.442 70.5931 243.424 70.6893C243.406 70.7855 243.364 70.8756 243.302 70.9509L221.572 97.5363C221.113 98.1854 220.82 98.9373 220.72 99.7259L219.417 109.201C219.527 110.027 220.174 110.343 220.695 109.601L225.375 104.09C225.529 103.88 225.759 103.738 226.017 103.695C226.274 103.652 226.538 103.711 226.752 103.859L238.818 112.653C238.95 112.751 239.104 112.813 239.267 112.835C239.43 112.857 239.596 112.837 239.749 112.778C239.902 112.718 240.037 112.621 240.143 112.495C240.248 112.369 240.32 112.218 240.351 112.057L250.246 63.4553C250.283 63.272 250.268 63.0821 250.202 62.907C250.137 62.732 250.024 62.5787 249.876 62.4646C249.728 62.3504 249.551 62.2799 249.365 62.2611C249.179 62.2423 248.991 62.2758 248.823 62.358L248.843 62.3881Z" fill="white"/>
</g>
<defs>
<linearGradient id="paint0_linear" x1="252.21" y1="362.949" x2="252.21" y2="20.2352" gradientUnits="userSpaceOnUse">
<stop stop-color="#808080" stop-opacity="0.25"/>
<stop offset="0.54" stop-color="#808080" stop-opacity="0.12"/>
<stop offset="1" stop-color="#808080" stop-opacity="0.1"/>
</linearGradient>
<radialGradient id="paint1_radial" cx="0" cy="0" r="1" gradientUnits="userSpaceOnUse" gradientTransform="translate(282.849 92.8415) scale(15.0363)">
<stop stop-color="white"/>
<stop offset="1"/>
</radialGradient>
<clipPath id="clip0">
<rect width="540" height="363.377" fill="white" transform="translate(0 0.884949)"/>
</clipPath>
</defs>
</svg>
